<?xml version="1.0" encoding="UTF-8"?>
<svg xmlns="http://www.w3.org/2000/svg" xmlns:xlink="http://www.w3.org/1999/xlink" width="30" height="30" viewBox="0 0 30 30" version="1.1">
<g id="surface1">
<path style=" stroke:none;fill-rule:nonzero;fill:rgb(0%,0%,0%);fill-opacity:1;" d="M 28.832031 3.691406 L 1.644531 3.691406 C 0.871094 3.691406 0 3.96875 0 4.746094 L 0 25.839844 C 0 26.097656 0.210938 26.308594 0.46875 26.308594 C 0.726562 26.308594 0.9375 26.097656 0.9375 25.839844 L 0.9375 25.253906 L 29.0625 25.253906 L 29.0625 25.839844 C 29.0625 26.097656 29.273438 26.308594 29.53125 26.308594 C 29.789062 26.308594 30 26.097656 30 25.839844 L 30 4.746094 C 30 3.96875 29.609375 3.691406 28.832031 3.691406 Z M 5.625 24.316406 L 0.9375 24.316406 L 0.9375 20.097656 L 5.625 20.097656 Z M 5.625 19.160156 L 0.9375 19.160156 L 0.9375 14.941406 L 5.625 14.941406 Z M 5.625 14.003906 L 0.9375 14.003906 L 0.9375 9.785156 L 5.625 9.785156 Z M 5.625 8.847656 L 0.9375 8.847656 L 0.9375 4.746094 C 0.9375 4.488281 1.386719 4.628906 1.644531 4.628906 L 5.625 4.628906 Z M 11.484375 24.316406 L 6.5625 24.316406 L 6.5625 20.097656 L 11.484375 20.097656 Z M 11.484375 19.160156 L 6.5625 19.160156 L 6.5625 14.941406 L 11.484375 14.941406 Z M 11.484375 14.003906 L 6.5625 14.003906 L 6.5625 9.785156 L 11.484375 9.785156 Z M 11.484375 8.847656 L 6.5625 8.847656 L 6.5625 4.628906 L 11.484375 4.628906 Z M 17.34375 24.316406 L 12.421875 24.316406 L 12.421875 20.097656 L 17.34375 20.097656 Z M 17.34375 19.160156 L 12.421875 19.160156 L 12.421875 14.941406 L 17.34375 14.941406 Z M 17.34375 14.003906 L 12.421875 14.003906 L 12.421875 9.785156 L 17.34375 9.785156 Z M 17.34375 8.847656 L 12.421875 8.847656 L 12.421875 4.628906 L 17.34375 4.628906 Z M 23.203125 24.316406 L 18.28125 24.316406 L 18.28125 20.097656 L 23.203125 20.097656 Z M 23.203125 19.160156 L 18.28125 19.160156 L 18.28125 14.941406 L 23.203125 14.941406 Z M 23.203125 14.003906 L 18.28125 14.003906 L 18.28125 9.785156 L 23.203125 9.785156 Z M 23.203125 8.847656 L 18.28125 8.847656 L 18.28125 4.628906 L 23.203125 4.628906 Z M 29.0625 24.316406 L 24.140625 24.316406 L 24.140625 20.097656 L 29.0625 20.097656 Z M 29.0625 19.160156 L 24.140625 19.160156 L 24.140625 14.941406 L 29.0625 14.941406 Z M 29.0625 14.003906 L 24.140625 14.003906 L 24.140625 9.785156 L 29.0625 9.785156 Z M 29.0625 4.746094 L 29.0625 8.847656 L 24.140625 8.847656 L 24.140625 4.628906 L 28.832031 4.628906 C 29.089844 4.628906 29.0625 4.488281 29.0625 4.746094 Z M 29.0625 4.746094 "/>
</g>
</svg>
